<?xml version="1.0" encoding="utf-8"?>
<!-- Generator: Adobe Illustrator 27.2.0, SVG Export Plug-In . SVG Version: 6.00 Build 0)  -->
<svg version="1.1" id="Calque_1" xmlns="http://www.w3.org/2000/svg" xmlns:xlink="http://www.w3.org/1999/xlink" x="0px" y="0px"
	 viewBox="0 0 320 5588.8" style="enable-background:new 0 0 320 5588.8;" xml:space="preserve">
<style type="text/css">
	.st0{fill:none;stroke:#F2D783;stroke-miterlimit:10;}
</style>
<g>
	<polyline class="st0" points="317.2,2867.2 246,2866.5 245.6,2946 225,2946.5 	"/>
	<polygon class="st0" points="237.3,2961 159.4,3053.5 81.6,2961 159.4,2868.6 	"/>
	<polyline class="st0" points="1.4,2867.2 72.6,2866.5 73.1,2946 93.6,2946.5 	"/>
	<line class="st0" x1="271.1" y1="2880.7" x2="271.1" y2="3646.6"/>
	<line class="st0" x1="47.5" y1="2880.7" x2="47.5" y2="3646.6"/>
	<line class="st0" x1="277" y1="2880.7" x2="277" y2="3652.5"/>
	<line class="st0" x1="41.9" y1="2880.7" x2="41.9" y2="3652.5"/>
	<polyline class="st0" points="124.2,2936.7 159.4,2894.9 195.7,2936.7 	"/>
	<polyline class="st0" points="124.2,2984.4 159.4,3024.7 195.7,2984.4 	"/>
	<line class="st0" x1="135.1" y1="2996.9" x2="135.1" y2="3218.9"/>
	<line class="st0" x1="184.9" y1="2996.9" x2="184.9" y2="3218.9"/>
	<polyline class="st0" points="260.9,3128.4 159.8,3248.6 58.7,3128.4 	"/>
	<polyline class="st0" points="1.1,2926.7 27.4,2926.7 27.4,3055.8 41.6,3055.8 	"/>
	<polyline class="st0" points="317.5,2926.7 291.1,2926.7 291.1,3055.8 277,3055.8 	"/>
	<polyline class="st0" points="95.7,3172.3 95.7,3319.5 223.9,3319.5 223.9,3172.3 	"/>
	<line class="st0" x1="145.9" y1="3232.1" x2="145.9" y2="3319.5"/>
	<line class="st0" x1="174.9" y1="3232.1" x2="174.9" y2="3319.5"/>
	<polyline class="st0" points="277,3099.6 310.6,3099.6 310.6,3399.1 277,3399.1 	"/>
	<polyline class="st0" points="41.9,3099.6 8.3,3099.6 8.3,3399.1 41.9,3399.1 	"/>
	<line class="st0" x1="301.9" y1="3119.9" x2="301.9" y2="3419.4"/>
	<line class="st0" x1="16.7" y1="3119.9" x2="16.7" y2="3419.4"/>
	<polyline class="st0" points="243.8,3399.1 211.8,3399.1 211.8,3496.8 187.1,3496.8 187.1,3599.9 	"/>
	<polyline class="st0" points="75.3,3399.1 107.3,3399.1 107.3,3496.8 132,3496.8 132,3599.9 	"/>
	<line class="st0" x1="64.3" y1="3263.6" x2="64.3" y2="3579.3"/>
	<line class="st0" x1="254.8" y1="3263.6" x2="254.8" y2="3579.3"/>
	<polyline class="st0" points="152,3328.5 152,3556.5 167.5,3556.5 167.5,3328.5 	"/>
	<polygon class="st0" points="227.2,3412.6 160,3492.4 92.8,3412.6 160,3332.8 	"/>
	<polyline class="st0" points="83.5,3412.6 83.5,3512 114.5,3512 114.5,3566.2 	"/>
	<polyline class="st0" points="234.3,3412.6 234.3,3512 203.2,3512 203.2,3566.2 	"/>
	<polyline class="st0" points="242.6,3570.4 159.8,3668.8 77,3570.4 	"/>
	<polyline class="st0" points="202.4,3627 254,3627 316.4,3696.4 	"/>
	<polyline class="st0" points="116.8,3627 65.2,3627 2.8,3696.4 	"/>
	<polyline class="st0" points="100.8,3627 159.4,3696.4 218.7,3627 	"/>
	<line class="st0" x1="55.7" y1="4067.7" x2="55.7" y2="3637.5"/>
	<line class="st0" x1="263.9" y1="3637.5" x2="263.9" y2="4067.7"/>
	<line class="st0" x1="263.9" y1="3817.9" x2="317.2" y2="3817.9"/>
	<line class="st0" x1="2.4" y1="3817.9" x2="55.8" y2="3817.9"/>
	<line class="st0" x1="59.8" y1="3632.9" x2="59.8" y2="4067.7"/>
	<line class="st0" x1="259.4" y1="3632.9" x2="259.4" y2="4067.7"/>
	<line class="st0" x1="159.4" y1="1090.7" x2="159.1" y2="1685.2"/>
	<line class="st0" x1="159.8" y1="2136" x2="159.1" y2="2279.3"/>
	<line class="st0" x1="159.3" y1="2934.2" x2="159.6" y2="2987.9"/>
	<line class="st0" x1="26.8" y1="3669.5" x2="26.8" y2="3818.6"/>
	<line class="st0" x1="293.7" y1="3671.1" x2="293.7" y2="3817.9"/>
	<polyline class="st0" points="263.9,3884.3 293.7,3884.3 293.8,4041.7 317.2,4041.7 	"/>
	<polyline class="st0" points="54.5,3884.3 24.7,3884.3 24.6,4041.7 1.1,4041.7 	"/>
	<path class="st0" d="M221.4,4711.4"/>
	<polyline class="st0" points="95.9,3651.8 95.9,4862.3 45.1,4862.3 45.1,5193.3 95.9,5193.3 95.9,5307.3 120,5307.3 120,5401.7 	
		"/>
	<path class="st0" d="M152,4679.2"/>
	<path class="st0" d="M152,3619.1"/>
	<path class="st0" d="M372.2,4886.7"/>
	<polygon class="st0" points="398.8,4455.5 160,4739.2 -78.8,4455.5 160,4171.9 	"/>
	<polygon class="st0" points="281.9,4455.8 159.8,4600.8 37.7,4455.8 159.8,4310.8 	"/>
	<polyline class="st0" points="264.4,1628 264.4,466.1 264.4,430.6 198.5,430.6 198.5,165.9 	"/>
	<line class="st0" x1="48.1" y1="913.4" x2="48.1" y2="1635.7"/>
	<line class="st0" x1="269.3" y1="913.4" x2="270.7" y2="1635.5"/>
	<polygon class="st0" points="277,1643 159.4,1782.6 41.9,1643 159.4,1503.4 	"/>
	<path class="st0" d="M277,1643"/>
	<polyline class="st0" points="270.7,1652.1 270.7,1788.6 159.3,1921.8 48.1,1789.4 48,1649.3 	"/>
	<polyline class="st0" points="264.5,1657.9 264.5,1786.6 159.8,1909.8 	"/>
	<path class="st0" d="M159.1,1909.8"/>
	<path class="st0" d="M54.3,1657.9"/>
	<polyline class="st0" points="54.3,1628 54.3,466.1 54.3,430.4 122.2,430.6 122.2,165.9 	"/>
	<polyline class="st0" points="54.3,1657.9 54.3,1786.6 159.1,1909.8 	"/>
	<polygon class="st0" points="244.8,1950.7 159.8,2051.8 74.7,1950.7 159.8,1849.7 	"/>
	<line class="st0" x1="207.7" y1="1863.9" x2="207.7" y2="2371.7"/>
	<line class="st0" x1="110.9" y1="1863.9" x2="110.9" y2="2371.7"/>
	<line class="st0" x1="195.7" y1="2009.1" x2="195.7" y2="2384.1"/>
	<line class="st0" x1="124.2" y1="2009.9" x2="124.2" y2="2384.1"/>
	<polyline class="st0" points="298,1508.2 298,2847.1 203,2847.1 203,2895 	"/>
	<polyline class="st0" points="21.3,1508.2 21.3,2847.1 116.6,2847.1 116.6,2894.9 	"/>
	<polyline class="st0" points="277,2300.9 160,2447.1 41.9,2300.9 	"/>
	<polyline class="st0" points="207.7,2406.4 207.7,2574.1 272.6,2574.1 	"/>
	<polyline class="st0" points="110.9,2406.4 110.9,2574.1 46.1,2574.1 	"/>
	<polyline class="st0" points="116.6,2413.8 159.8,2466.7 203,2413.8 	"/>
	<line class="st0" x1="27.7" y1="2315.8" x2="27.7" y2="2838.3"/>
	<line class="st0" x1="292.8" y1="2315.8" x2="292.8" y2="2838.3"/>
	<polyline class="st0" points="218.7,2391.8 218.7,2557.9 272.6,2557.9 	"/>
	<polyline class="st0" points="101,2391.8 101,2557.9 47.2,2557.9 	"/>
	<line class="st0" x1="159.8" y1="2474.8" x2="159.4" y2="2621.4"/>
	<line class="st0" x1="124.2" y1="2621.4" x2="195.7" y2="2621.4"/>
	<line class="st0" x1="195.7" y1="2630" x2="195.7" y2="2777.5"/>
	<line class="st0" x1="124.2" y1="2630" x2="124.2" y2="2777.5"/>
	<line class="st0" x1="138.5" y1="2630" x2="138.5" y2="2777.5"/>
	<line class="st0" x1="181.4" y1="2630" x2="181.4" y2="2777.5"/>
	<line class="st0" x1="167.1" y1="2630" x2="167.1" y2="2777.5"/>
	<line class="st0" x1="152.8" y1="2630" x2="152.8" y2="2777.5"/>
	<polygon class="st0" points="281.9,2699.6 159.4,2845.1 36.9,2699.6 159.4,2554.1 	"/>
	<polyline class="st0" points="281.8,2709.3 160,2855 37.1,2709.3 	"/>
	<line class="st0" x1="209.6" y1="2856" x2="209.6" y2="2905.4"/>
	<line class="st0" x1="109.1" y1="2856" x2="109.1" y2="2905.4"/>
	<line class="st0" x1="221.9" y1="4067.7" x2="317.2" y2="4067.7"/>
	<line class="st0" x1="0.7" y1="4067.7" x2="96" y2="4067.7"/>
	<polyline class="st0" points="26.4,4077.5 87.8,4077.5 87.8,4592.5 	"/>
	<polyline class="st0" points="288.6,4077.5 230.1,4077.5 230.1,4589.3 	"/>
	<polyline class="st0" points="221.9,3651.1 221.9,4862.3 273.5,4862.3 273.7,5192.2 222.6,5192.2 222.7,5307.3 198.6,5307.3 
		198.6,5401.7 	"/>
	<polygon class="st0" points="269.3,5021.8 159.4,5152.3 49.6,5021.8 159.4,4891.3 	"/>
	<line class="st0" x1="281.8" y1="4898.1" x2="281.8" y2="5159.7"/>
	<line class="st0" x1="36.7" y1="4898.1" x2="36.7" y2="5159.7"/>
	<line class="st0" x1="236.1" y1="4671.2" x2="306.4" y2="4589.3"/>
	<line class="st0" x1="86" y1="4671.2" x2="15.7" y2="4589.3"/>
</g>
<line class="st0" x1="159.4" y1="4951.8" x2="160" y2="5514.1"/>
<line class="st0" x1="165.4" y1="57.2" x2="163.9" y2="632.1"/>
</svg>
